<svg xmlns="http://www.w3.org/2000/svg" viewBox="0 0 27.35 27.14"><g id="Calque_2" data-name="Calque 2"><g id="Calque_1-2" data-name="Calque 1"><path d="M25,13.29,22,16.38A1.36,1.36,0,0,1,20,14.45l3.09-3.09a5.12,5.12,0,0,0,.2-7,4.85,4.85,0,0,0-3.54-1.59h-.16a5.73,5.73,0,0,0-4,1.66L12.78,7.2a1.37,1.37,0,0,1-1.93,0,1.36,1.36,0,0,1,0-1.93l2.82-2.81A8.52,8.52,0,0,1,19.85,0a7.57,7.57,0,0,1,5.5,2.49A7.85,7.85,0,0,1,25,13.29Z"/><path d="M16.48,21.85l-2.83,2.84a8.44,8.44,0,0,1-6.17,2.44A7.55,7.55,0,0,1,2,24.65a7.85,7.85,0,0,1-2-5.26,7.68,7.68,0,0,1,2.29-5.55l3.09-3.09a1.35,1.35,0,0,1,1-.4,1.33,1.33,0,0,1,1,.4,1.35,1.35,0,0,1,.4,1,1.33,1.33,0,0,1-.4,1L4.21,15.76a5.06,5.06,0,0,0-1.49,3.62A5.15,5.15,0,0,0,4,22.83a4.84,4.84,0,0,0,3.54,1.58,5.77,5.77,0,0,0,4.16-1.65l2.84-2.83a1.36,1.36,0,0,1,1.92,1.92Z"/><path d="M7.6,17.72,17.82,7.49a1.39,1.39,0,0,1,1-.39,1.35,1.35,0,0,1,1,.39,1.37,1.37,0,0,1,0,1.93L9.52,19.64a1.38,1.38,0,0,1-1.92,0,1.33,1.33,0,0,1-.4-1A1.35,1.35,0,0,1,7.6,17.72Z"/></g></g></svg>